<svg xmlns="http://www.w3.org/2000/svg" aria-hidden="true">
  <defs>
    <symbol id="icon-Youtube" viewBox="0 0 32 32">
      <path d="M28.791 9.604a3.345 3.345 0 0 0-2.35-2.354C24.353 6.677 16 6.667 16 6.667s-8.352-.009-10.441.539a3.416 3.416 0 0 0-2.354 2.371c-.551 2.088-.556 6.419-.556 6.419s-.005 4.352.541 6.419a3.341 3.341 0 0 0 2.351 2.353c2.109.573 10.44.583 10.44.583s8.353.009 10.441-.537a3.356 3.356 0 0 0 2.356-2.35c.552-2.087.556-6.416.556-6.416s.027-4.353-.543-6.441zM13.328 20.007l.007-8 6.943 4.007-6.949 3.993z"/>
    </symbol>
    <symbol id="icon-LinkedIn" viewBox="0 0 32 32">
      <path d="M25.75 4H6.25A2.257 2.257 0 0 0 4 6.25v19.5A2.257 2.257 0 0 0 6.25 28h19.5A2.257 2.257 0 0 0 28 25.75V6.25A2.257 2.257 0 0 0 25.75 4zM13 23.5h-3V13h3v10.5zm-1.5-12a1.5 1.5 0 1 1-.001-2.999A1.5 1.5 0 0 1 11.5 11.5zm12 12h-3v-6a1.5 1.5 0 1 0-3 0v6h-3V13h3v1.861c.619-.848 1.565-1.861 2.625-1.861 1.866 0 3.375 1.679 3.375 3.75v6.75z"/>
    </symbol>
    <symbol id="icon-Instagram" viewBox="0 0 32 32">
      <path d="M15.998 6.161c3.206 0 3.585.014 4.846.071 1.172.052 1.804.248 2.226.412.558.216.961.478 1.378.895.422.422.679.82.9 1.378.164.422.361 1.059.413 2.226.056 1.266.07 1.645.07 4.847s-.014 3.585-.07 4.847c-.052 1.172-.248 1.804-.413 2.227a3.702 3.702 0 0 1-.895 1.377c-.422.422-.82.679-1.378.9-.422.164-1.06.361-2.226.412-1.266.056-1.645.071-4.847.071s-3.585-.014-4.847-.071c-1.172-.052-1.804-.248-2.226-.412a3.714 3.714 0 0 1-1.378-.895 3.767 3.767 0 0 1-.9-1.378c-.164-.422-.361-1.06-.412-2.226-.056-1.266-.071-1.645-.071-4.847s.014-3.585.071-4.847c.052-1.172.248-1.804.412-2.226.216-.558.478-.961.895-1.378.422-.422.82-.679 1.378-.9.422-.164 1.059-.361 2.226-.412 1.261-.056 1.641-.071 4.847-.071h.001zm0-2.16c-3.258 0-3.665.014-4.945.071-1.275.056-2.151.262-2.91.558a5.847 5.847 0 0 0-2.127 1.387A5.883 5.883 0 0 0 4.629 8.14c-.295.764-.502 1.636-.558 2.91C4.015 12.335 4 12.742 4 15.999s.014 3.665.071 4.945c.056 1.275.262 2.151.558 2.91a5.86 5.86 0 0 0 1.387 2.127 5.876 5.876 0 0 0 2.123 1.383c.764.295 1.636.502 2.91.558 1.279.056 1.687.071 4.945.071s3.666-.014 4.945-.071c1.275-.056 2.151-.262 2.91-.558.787-.305 1.458-.717 2.123-1.383s1.078-1.336 1.383-2.123c.295-.764.502-1.635.558-2.91.056-1.279.071-1.687.071-4.945s-.014-3.665-.071-4.945c-.056-1.275-.262-2.151-.558-2.91a5.622 5.622 0 0 0-1.373-2.133 5.876 5.876 0 0 0-2.123-1.383c-.764-.295-1.636-.502-2.91-.558-1.284-.061-1.692-.075-4.949-.075L15.999 4z"/>
      <path d="M15.997 9.836a6.164 6.164 0 1 0 6.163 6.163 6.164 6.164 0 0 0-6.163-6.163zm0 10.161a3.998 3.998 0 1 1 0-7.996 3.998 3.998 0 0 1 0 7.996zM23.842 9.592a1.439 1.439 0 1 1-2.877 0 1.439 1.439 0 0 1 2.877 0z"/>
    </symbol>
    <symbol id="icon-star-nofill" viewBox="0 0 32 32">
      <path d="M7.226 19.719 4.842 30.042a1.596 1.596 0 0 0 2.447 1.691l8.712-5.808 8.712 5.808a1.604 1.604 0 0 0 1.829-.04 1.606 1.606 0 0 0 .598-1.729l-2.926-10.24 7.258-6.531a1.604 1.604 0 0 0-.088-2.452 1.594 1.594 0 0 0-.856-.332l-9.122-.726L17.459.945A1.6 1.6 0 0 0 16.002 0a1.591 1.591 0 0 0-1.457.945l-3.947 8.738-9.122.725a1.597 1.597 0 0 0-1.378 1.051 1.597 1.597 0 0 0 .388 1.69l6.742 6.571zm4.564-6.921a1.598 1.598 0 0 0 1.331-.937l2.878-6.37 2.878 6.37a1.597 1.597 0 0 0 1.331.937l6.355.504-5.234 4.71a1.605 1.605 0 0 0-.469 1.629l2.005 7.016-5.978-3.986a1.591 1.591 0 0 0-1.774 0l-6.246 4.165 1.68-7.274a1.6 1.6 0 0 0-.442-1.504l-4.861-4.739 6.544-.522z"/>
    </symbol>
    <symbol id="icon-star-fill" viewBox="0 0 32 32">
      <path d="M7.226 19.719 4.842 30.042a1.596 1.596 0 0 0 2.447 1.691l8.712-5.808 8.712 5.808a1.604 1.604 0 0 0 1.829-.04 1.606 1.606 0 0 0 .598-1.729l-2.926-10.24 7.258-6.531a1.604 1.604 0 0 0-.088-2.452 1.594 1.594 0 0 0-.856-.332l-9.122-.726L17.459.945A1.6 1.6 0 0 0 16.002 0a1.591 1.591 0 0 0-1.457.945l-3.947 8.738-9.122.725a1.597 1.597 0 0 0-1.378 1.051 1.597 1.597 0 0 0 .388 1.69l6.742 6.571z"/>
    </symbol>
    <symbol id="icon-logo" viewBox="0 0 85 32">
      <path d="M13.694 0c-.167 0-.342 0-.507.02-1.914.16-3.674.973-4.926 2.454-1.363 1.612-1.693 3.311-1.677 5.364l-3.647-.006c-.163 0-.332-.005-.504-.01-.476-.013-.97-.027-1.416.055-.269.049-.503.18-.692.377-.331.345-.339.78-.318 1.226.034.703.094 1.407.155 2.11.033.383.066.765.094 1.147l.605 7.822.295 3.777c.014.186.026.375.038.564.042.676.084 1.362.262 2.009a6.058 6.058 0 0 0 4.36 4.251c.818.197 1.767.175 2.66.154.266-.006.526-.012.776-.012h9.198c.234 0 .476.006.72.012.792.019 1.618.038 2.358-.134a6.165 6.165 0 0 0 2.855-1.568c.707-.702 1.273-1.639 1.52-2.607.189-.741.236-1.553.282-2.341.015-.254.03-.506.049-.751l.402-5.181.502-6.361c.024-.314.056-.632.087-.95.068-.69.137-1.385.135-2.066-.001-.419-.09-.81-.39-1.122-.207-.215-.545-.319-.831-.366-.429-.07-.899-.057-1.354-.045-.168.004-.334.009-.495.009-1.147-.002-2.294.002-3.442.012l-.049.001c.027-2.198-.462-4.084-2.043-5.692A7.042 7.042 0 0 0 13.717 0h-.024zm6.952 12.538.062.004.005.012a.685.685 0 0 1 .009.022l.003.006c.011.026.013.03.013.072-.02 2.695-.741 6.166-2.654 8.139-1.771 1.828-4.522 2.725-7.031 2.775 1.168-2.198 3.046-4.282 4.983-5.83.299-.239.613-.455.927-.672.202-.139.404-.279.603-.424.193-.141.452-.333.479-.591.025-.237-.101-.422-.25-.591-.208-.121-.361-.171-.599-.101-.338.099-.678.349-.985.574-.081.06-.16.118-.236.171a20.647 20.647 0 0 0-6.043 6.694c-.05-2.156.441-3.962 1.763-5.696 1.984-2.602 5.782-4.132 8.952-4.564zM1.368 9.182h24.639c-.087.83-.144 1.667-.201 2.503-.032.466-.063.932-.1 1.395l-.663 8.314-.248 3.064a50.2 50.2 0 0 0-.031.401c-.04.529-.08 1.062-.182 1.579-.105.531-.308.993-.583 1.456a5.376 5.376 0 0 1-.345.465c-.714.854-1.887 1.489-3 1.573-.606.046-1.23.034-1.849.023-.267-.005-.534-.01-.798-.01h-9.18c-.196 0-.396.004-.597.008-.617.013-1.249.026-1.841-.076a4.395 4.395 0 0 1-2.104-.992 4.591 4.591 0 0 1-1.476-2.323c-.166-.601-.208-1.242-.248-1.871-.01-.158-.02-.315-.033-.471l-.242-3.117-.918-11.921zm19.825 1.911-.018.002c-3.74.433-7.998 1.971-10.416 5.001-1.554 1.947-2.403 4.48-2.122 6.974.062.548.186 1.071.364 1.592l-.073.184c-.307.771-1.02 2.565-.772 3.095a.609.609 0 0 0 .376.306c.065.02.131.032.199.04.21-.035.403-.078.529-.265.135-.202.274-.686.393-1.1.057-.197.108-.379.153-.506.154-.436.328-.866.502-1.295l.002-.005.061-.15c3.084.009 6.378-.956 8.609-3.158 2.495-2.462 3.124-6.433 3.129-9.793 0-.265-.018-.579-.212-.782-.119-.125-.299-.162-.465-.159-.08.002-.161.01-.241.019zm-7.799-9.745c.119-.007.239-.014.359-.013 1.465.01 2.932.665 3.961 1.698 1.402 1.406 1.688 2.898 1.691 4.806l-11.407.005c-.046-1.64.218-3.138 1.294-4.433 1.034-1.244 2.509-1.919 4.102-2.062z"/>
      <path d="m20.708 12.542-.062-.004c-3.17.432-6.968 1.961-8.952 4.564-1.322 1.734-1.813 3.54-1.763 5.696a20.616 20.616 0 0 1 6.043-6.694c.076-.053.155-.111.236-.171.307-.225.647-.475.985-.574.238-.07.39-.019.599.101.149.17.275.354.25.591-.027.258-.287.45-.479.591-.198.146-.401.285-.603.424-.314.216-.627.433-.927.672-1.937 1.548-3.814 3.632-4.983 5.83 2.509-.05 5.259-.947 7.031-2.775 1.913-1.974 2.634-5.444 2.654-8.139.001-.041-.001-.046-.013-.072l-.01-.023-.007-.017zm.467-1.447.018-.002c.08-.009.16-.017.241-.019.167-.004.346.034.465.159.194.203.212.517.212.782-.005 3.36-.634 7.331-3.129 9.793-2.231 2.201-5.525 3.167-8.609 3.158l-.061.151-.002.005c-.174.429-.349.858-.502 1.295a9.772 9.772 0 0 0-.153.506c-.119.414-.257.898-.393 1.1-.126.187-.32.231-.529.265a1.114 1.114 0 0 1-.199-.04.604.604 0 0 1-.376-.306c-.248-.53.465-2.324.772-3.095l.073-.184a7.367 7.367 0 0 1-.364-1.592c-.28-2.494.568-5.027 2.122-6.974 2.418-3.03 6.675-4.568 10.416-5.001z"/>
      <path d="m21.193 11.093-.018.002c-3.74.433-7.998 1.971-10.415 5.001-1.554 1.947-2.403 4.48-2.122 6.974.062.548.186 1.071.364 1.592l-.073.184c-.307.771-1.02 2.565-.772 3.095a.609.609 0 0 0 .376.306c.065.02.131.032.199.04.21-.035.403-.078.529-.265.135-.202.274-.686.393-1.1.057-.197.109-.379.154-.507.154-.436.328-.866.502-1.295l.002-.005.061-.151c3.084.009 6.378-.956 8.609-3.158 2.495-2.462 3.124-6.433 3.129-9.793 0-.265-.018-.579-.212-.782-.119-.125-.299-.162-.465-.159-.08.002-.161.01-.241.019zm-.547 1.445.062.004.007.017.01.023c.011.026.013.03.013.072-.02 2.695-.741 6.166-2.654 8.139-1.771 1.828-4.522 2.725-7.031 2.775 1.168-2.198 3.046-4.282 4.983-5.83.3-.239.613-.455.927-.672.202-.139.404-.279.603-.424.193-.141.452-.333.48-.591.025-.237-.101-.422-.25-.591-.208-.121-.361-.171-.599-.101-.338.099-.678.349-.985.574-.081.06-.16.118-.236.171a20.647 20.647 0 0 0-6.043 6.694c-.05-2.156.44-3.962 1.763-5.696 1.984-2.602 5.782-4.132 8.952-4.564zM69.351 20.227a4.8 4.8 0 1 0-9.595.34 4.8 4.8 0 0 0 9.595-.34zm-4.798-3.187c.773.031 1.399.217 1.988.739.702.621 1.094 1.519 1.145 2.449s-.241 1.874-.875 2.567c-.579.634-1.301.917-2.147.959-.772-.008-1.409-.128-2.018-.635-.711-.592-1.114-1.468-1.189-2.382-.078-.95.171-1.933.802-2.662.626-.723 1.365-.972 2.294-1.035zM56.011 19.83a4.797 4.797 0 1 0-9.527 1.142 4.797 4.797 0 0 0 9.527-1.142zm-5.189-2.751c.768-.063 1.465.018 2.114.465.729.501 1.187 1.275 1.339 2.14.172.982.01 2.032-.58 2.85-.517.716-1.163 1.072-2.024 1.209-.786.04-1.481-.008-2.143-.476a3.245 3.245 0 0 1-1.335-2.135c-.16-.951.032-2.046.6-2.838.499-.695 1.196-1.081 2.031-1.214zM79.414 15.594l-.071.005a4.537 4.537 0 0 0-3.056 1.686c-.867 1.095-1.164 2.483-.993 3.856a4.545 4.545 0 0 0 1.713 3.054c1.132.88 2.568 1.103 3.968.912.81-.111 2.027-.499 2.543-1.172a.871.871 0 0 0 .185-.659.637.637 0 0 0-.235-.431c-.159-.118-.371-.133-.559-.096-.262.051-.496.213-.72.366l-.139.095c-.977.508-2.061.747-3.136.398a2.995 2.995 0 0 1-1.752-1.524c-.185-.369-.278-.762-.36-1.164h4.612c.192 0 .398.007.61.014.547.017 1.132.036 1.614-.05a.723.723 0 0 0 .369-.196c.226-.221.267-.534.26-.835-.026-1.155-.569-2.295-1.409-3.077-.971-.903-2.141-1.242-3.446-1.183zm.142 1.443c.7-.082 1.406.096 1.983.502.69.49 1.051 1.186 1.197 2.005-.584.007-1.17.005-1.755.004-.292-.001-.585-.002-.877-.001l-3.243.004c.148-.499.321-.952.64-1.37.514-.673 1.226-1.034 2.056-1.143z"/>
      <path d="M53.73 12.164c1.731-.041 3.471-.003 5.203-.006.986-.002 2.247-.082 3.205.017.154.016.277.06.394.162a.83.83 0 0 1 .284.588c.005.201-.118.432-.263.567a.715.715 0 0 1-.389.167c-.399.064-.839.027-1.243.026l-2.149-.004-.001 7.976c.003.672.088 2.138-.013 2.71a.995.995 0 0 1-.221.496.694.694 0 0 1-.513.226c-.207.005-.408-.041-.557-.191-.175-.176-.239-.434-.261-.674-.04-.443-.003-.911.002-1.356.008-.658.002-1.317.001-1.975l.005-7.213c-.715.003-3.189.117-3.695-.113a.653.653 0 0 1-.368-.406.745.745 0 0 1 .065-.611c.121-.22.283-.314.516-.386zM42.407 15.6a5.958 5.958 0 0 1 1.895.172c.659.177 1.667.565 2.008 1.191.094.172.143.378.076.569-.068.194-.252.343-.438.419-.542.222-1.221-.525-1.731-.717-.829-.313-1.827-.295-2.634.081-.741.346-1.274 1.002-1.55 1.763-.32.884-.347 2.036.059 2.897.377.798 1.071 1.356 1.894 1.647.942.333 1.923.156 2.803-.266.273-.148.52-.344.831-.409a.573.573 0 0 1 .456.079.835.835 0 0 1 .327.552.695.695 0 0 1-.172.514c-.515.638-1.661.959-2.441 1.055-1.354.166-2.764-.105-3.847-.969a4.728 4.728 0 0 1-1.793-3.26 4.906 4.906 0 0 1 1.046-3.571 4.713 4.713 0 0 1 3.21-1.747zM71.32 13.178l.08-.003c.24-.008.481.057.651.234.404.423.244 1.847.239 2.43.551.003 1.892-.168 2.305.199a.67.67 0 0 1 .211.515c.001.191-.049.374-.19.508-.386.366-1.78.222-2.326.218.005 1.171-.153 4.782.208 5.671.584 1.437 1.849.173 2.57.513a.698.698 0 0 1 .338.386c.081.228.009.431-.085.64l-.048.052c-.436.454-1.255.563-1.856.572-.698.01-1.358-.108-1.873-.625-.372-.373-.604-.885-.717-1.395-.175-.787-.103-1.659-.102-2.461l.002-3.353c-.423 0-.847-.003-1.27-.01a1.344 1.344 0 0 1-.199-.144.826.826 0 0 1-.249-.597.64.64 0 0 1 .19-.496c.342-.317 1.094-.203 1.529-.195-.001-.61-.135-1.703.095-2.24.102-.238.27-.325.499-.42z"/>
      <path d="M37.744 12.95c-.729-.072-4.298-.046-5.536-.028-.228.003-.439.019-.624.033a5.82 5.82 0 0 1-.412.022s-.493.116-.653.338c-.104.145-.14.33-.165.503-.132.922-.21 1.863-.287 2.8-.041.493-.081.986-.13 1.475l-.47 4.74c-.012.127-.034.3-.059.496-.079.635-.19 1.514-.118 1.864a.658.658 0 0 0 .314.455c.169.1.361.156.554.189h.002c.398-.001.999.005 1.67.012 1.391.014 4.928.032 5.751-.003.164-.007.338-.021.492-.08a.777.777 0 0 0 .46-.438.832.832 0 0 0-.029-.649.653.653 0 0 0-.435-.383H30.96c.119-1.047.225-2.095.318-3.144l.084-.853.008-.084.216.003c.724.011 4.249.036 4.698-.031.165-.025.319-.066.439-.188a.766.766 0 0 0 .208-.593.765.765 0 0 0-.234-.512.639.639 0 0 0-.335-.154c-.42-.061-3.553-.044-4.344-.034a40.62 40.62 0 0 1-.502.005l.36-4.252h3.837c.196 0 .399.007.606.013.501.016 1.02.033 1.485-.039a.723.723 0 0 0 .428-.203.78.78 0 0 0 .216-.579.758.758 0 0 0-.703-.702z"/>
    </symbol>
  </defs>
</svg>